:FULLY-SPECIFIED
:FORCE-ALL-JOINTS-BE-3DOF
:DEGREES
1
root 6.24314 16.836 -28.1378 9.0217 -2.52979 -3.05774
lfemur -20.3712 2.30257 -19.9954
ltibia 35.927 0 0
lfoot -38.654 3.93715 0
ltoes 38.9541 0 0
rfemur -19.4747 0.22019 19.5256
rtibia 36.0342 0 0
rfoot -30.3779 -10.4967 0
rtoes 21.4483 0 0
lowerback -2.05144 3.66971 -5.03766
upperback -2.66728 5.00355 3.49279
thorax -2.36397 2.67023 6.42441
lowerneck -9.84699 -2.36864 1.94815
upperneck -1.37933 -3.32542 -1.65382
head 1.16433 -1.69823 -0.975663
lclavicle -1.65488e-14 -3.69739e-14 0
lhumerus -41.7253 -10.8128 99.8312
lradius 34.5094 0 0
lwrist 2.17521 0 0
lhand -10.5949 9.65639 0
lfingers 7.12502 0 0
lthumb 15.4107 39.062 0
rclavicle -1.65488e-14 -3.69739e-14 0
rhumerus -43.273 -4.86223 -84.2703
rradius 40.4763 0 0
rwrist 9.89469 0 0
rhand -23.7965 -22.476 0
rfingers 7.12502 0 0
rthumb 2.67393 -52.439 0
2
root 6.2349 16.8387 -28.1346 9.79364 -2.72708 -3.3015
lfemur -22.0149 2.46523 -21.6207
ltibia 38.6364 -0 0
lfoot -41.5413 4.274 8.17755e-05
ltoes 41.8902 -0 0
rfemur -20.9754 0.447201 21.1188
rtibia 38.646 -0 0
rfoot -32.6975 -11.6044 -0.00389136
rtoes 23.0967 -0 0
lowerback -2.30653 3.9454 -5.37562
upperback -2.875 5.38236 3.73927
thorax -2.48218 2.86672 6.87148
lowerneck -10.664 -2.54992 2.11742
upperneck -1.52354 -3.58268 -1.75236
head 1.25295 -1.82917 -1.04459
lclavicle -1.23856e-14 -3.44749e-14 0
lhumerus -44.9097 -10.656 104.135
lradius 37.207 -0 0
lwrist 2.39495 0 0
lhand -11.4896 10.3152 0.000311991
lfingers 7.12502 0 0
lthumb 16.6677 41.8856 0.000295392
rclavicle -1.23856e-14 -3.44749e-14 0
rhumerus -46.4379 -4.89161 -88.7986
rradius 43.5116 -0 0
rwrist 10.7428 0 0
rhand -25.8365 -24.1979 -0.00267645
rfingers 7.12502 0 0
rthumb 2.78165 -56.0196 -0.00249972
3
root 6.22667 16.8415 -28.1314 10.3516 -2.8703 -3.47905
lfemur -23.188 2.58029 -22.7845
ltibia 40.5322 -0 0
lfoot -43.5597 4.51853 0.000126594
ltoes 43.9498 -0 0
rfemur -22.0402 0.63727 22.2622
rtibia 40.4627 -0 0
rfoot -34.3344 -12.4292 -0.00658505
rtoes 24.2952 -0 0
lowerback -2.49708 4.14353 -5.61869
upperback -3.02482 5.65466 3.91945
thorax -2.56294 3.00784 7.1963
lowerneck -11.2546 -2.68032 2.23749
upperneck -1.62848 -3.76755 -1.82528
head 1.31705 -1.92331 -1.09447
lclavicle -8.22232e-15 -3.19759e-14 0
lhumerus -47.1284 -10.5258 106.774
lradius 39.0881 -0 0
lwrist 2.54573 0 0
lhand -12.134 10.7805 0.0003327
lfingers 7.12502 0 0
lthumb 17.5737 43.8482 0.000314382
rclavicle -8.22232e-15 -3.19759e-14 0
rhumerus -48.6306 -4.89501 -91.674
rradius 45.6285 -0 0
rwrist 11.3576 0 0
rhand -27.31 -25.4133 -0.00489611
rfingers 7.12502 0 0
rthumb 2.84256 -58.4442 -0.00447911
4
root 6.21843 16.8442 -28.1283 10.7025 -2.96137 -3.59258
lfemur -23.9157 2.65161 -23.511
ltibia 41.693 -0 0
lfoot -44.8004 4.67343 0.000137832
ltoes 45.2251 -0 0
rfemur -22.6932 0.787904 22.9785
rtibia 41.5629 -0 0
rfoot -35.3432 -12.9762 -0.00818019
rtoes 25.0696 -0 0
lowerback -2.62325 4.26722 -5.77143
upperback -3.11878 5.82467 4.03609
thorax -2.60904 3.09594 7.40439
lowerneck -11.6268 -2.76177 2.30984
upperneck -1.69476 -3.8827 -1.87402
head 1.35753 -1.98198 -1.12612
lclavicle -4.05909e-15 -2.94769e-14 0
lhumerus -48.4882 -10.4365 108.261
lradius 40.2264 -0 0
lwrist 2.62929 0 0
lhand -12.5371 11.0621 9.28067e-05
lfingers 7.12502 0 0
lthumb 18.1442 45.0427 9.69943e-05
rclavicle -4.05909e-15 -2.94769e-14 0
rhumerus -49.9676 -4.89199 -93.33
rradius 46.9282 -0 0
rwrist 11.7467 0 0
rhand -28.2489 -26.1535 -0.00669196
rfingers 7.12502 0 0
rthumb 2.86085 -59.8896 -0.0060411
5
root 6.2102 16.847 -28.1251 10.8623 -3.0043 -3.64689
lfemur -24.2384 2.68387 -23.8392
ltibia 42.2061 -0 0
lfoot -45.3605 4.74531 0.000119881
ltoes 45.8145 -0 0
rfemur -22.9718 0.900015 23.3054
rtibia 42.0323 -0 0
rfoot -35.7915 -13.2645 -0.00880871
rtoes 25.4586 -0 0
lowerback -2.68887 4.32239 -5.84128
upperback -3.16116 5.90054 4.09415
thorax -2.6239 3.1353 7.50515
lowerneck -11.7976 -2.79809 2.33811
upperneck -1.72502 -3.93359 -1.90057
head 1.37622 -2.00796 -1.14098
lclavicle 1.04152e-16 -2.69779e-14 0
lhumerus -49.1005 -10.3875 108.894
lradius 40.7081 -0 0
lwrist 2.65083 0 0
lhand -12.7178 11.1758 -0.000369902
lfingers 7.12502 0 0
lthumb 18.4072 45.5659 -0.000319004
rclavicle 1.04152e-16 -2.69779e-14 0
rhumerus -50.5642 -4.89022 -94.047
rradius 47.5162 -0 0
rwrist 11.9277 0 0
rhand -28.7028 -26.4638 -0.00810816
rfingers 7.12502 0 0
rthumb 2.84153 -60.5095 -0.00727533
6
root 6.20196 16.8497 -28.1219 10.8531 -3.00457 -3.64867
lfemur -24.2056 2.68211 -23.8176
ltibia 42.1594 -0 0
lfoot -45.3341 4.74362 7.77804e-05
ltoes 45.813 -0 0
rfemur -22.9218 0.976752 23.29
rtibia 41.9568 -0 0
rfoot -35.7524 -13.3224 -0.00862243
rtoes 25.5083 -0 0
lowerback -2.70046 4.317 -5.83782
upperback -3.15788 5.89319 4.10018
thorax -2.61143 3.13159 7.51078
lowerneck -11.7902 -2.7945 2.3275
upperneck -1.72336 -3.92766 -1.90733
head 1.3756 -2.00502 -1.14096
lclavicle 4.26739e-15 -2.44789e-14 0
lhumerus -49.0707 -10.374 108.849
lradius 40.6217 -0 0
lwrist 2.61805 0 0
lhand -12.702 11.1418 -0.0010134
lfingers 7.12502 0 0
lthumb 18.3989 45.5111 -0.00089885
rclavicle 4.26739e-15 -2.44789e-14 0
rhumerus -50.5268 -4.89188 -94.0039
rradius 47.4922 -0 0
rwrist 11.9244 0 0
rhand -28.7314 -26.398 -0.00919353
rfingers 7.12502 0 0
rthumb 2.79006 -60.4309 -0.00825311
7
root 6.19373 16.8525 -28.1187 10.701 -2.96864 -3.60586
lfemur -23.8722 2.65151 -23.5001
ltibia 41.639 -0 0
lfoot -44.8112 4.6797 1.68959e-05
ltoes 45.311 -0 0
rfemur -22.5942 1.02269 22.9848
rtibia 41.4202 -0 0
rfoot -35.3008 -13.1848 -0.00778329
rtoes 25.2693 -0 0
lowerback -2.6663 4.26033 -5.77205
upperback -3.11597 5.8154 4.06181
thorax -2.57581 3.09142 7.43537
lowerneck -11.6322 -2.75712 2.28426
upperneck -1.69479 -3.87366 -1.89701
head 1.3586 -1.97761 -1.12829
lclavicle 8.43063e-15 -2.19799e-14 0
lhumerus -48.4975 -10.3901 108.228
lradius 40.0554 -0 0
lwrist 2.5402 0 0
lhand -12.5202 10.983 -0.00179378
lfingers 7.12502 0 0
lthumb 18.161 44.9667 -0.00160971
rclavicle 8.43063e-15 -2.19799e-14 0
rhumerus -49.9524 -4.89641 -93.3166
rradius 46.9503 -0 0
rwrist 11.7653 0 0
rhand -28.3996 -26.0145 -0.00999818
rfingers 7.12502 0 0
rthumb 2.7122 -59.7604 -0.00902932
8
root 6.18549 16.8552 -28.1155 10.4345 -2.90357 -3.52715
lfemur -23.2965 2.59732 -22.9439
ltibia 40.7299 -0 0
lfoot -43.8792 4.56595 -5.73473e-05
ltoes 44.3965 -0 0
rfemur -22.0428 1.04328 22.4459
rtibia 40.5049 -0 0
rfoot -34.5126 -12.8902 -0.00645604
rtoes 24.7949 -0 0
lowerback -2.59572 4.16243 -5.65578
upperback -3.04303 5.68101 3.98734
thorax -2.5214 3.02188 7.29412
lowerneck -11.3534 -2.69263 2.21519
upperneck -1.6449 -3.78113 -1.87252
head 1.32844 -1.93058 -1.1054
lclavicle 1.25939e-14 -1.94809e-14 0
lhumerus -47.4758 -10.4294 107.093
lradius 39.0971 -0 0
lwrist 2.42739 0 0
lhand -12.2056 10.7237 -0.00266723
lfingers 7.12502 0 0
lthumb 17.7383 44.0188 -0.0024192
rclavicle 1.25939e-14 -1.94809e-14 0
rhumerus -48.933 -4.90174 -92.0651
rradius 45.9807 -0 0
rwrist 11.4812 0 0
rhand -27.7757 -25.3744 -0.0105719
rfingers 7.12502 0 0
rthumb 2.61377 -58.5933 -0.00964634
9
root 6.17726 16.858 -28.1124 10.083 -2.81662 -3.42152
lfemur -22.538 2.52487 -22.2076
ltibia 39.5178 -0 0
lfoot -42.6257 4.41519 -0.000139691
ltoes 43.1571 -0 0
rfemur -21.3228 1.04447 21.7306
rtibia 39.2942 -0 0
rfoot -33.4653 -12.4784 -0.00480238
rtoes 24.1398 -0 0
lowerback -2.49848 4.03363 -5.50117
upperback -2.94694 5.50422 3.88534
thorax -2.4526 2.93028 7.10271
lowerneck -10.9843 -2.60786 2.12725
upperneck -1.57945 -3.65985 -1.83689
head 1.28839 -1.86892 -1.07475
lclavicle 1.67571e-14 -1.69819e-14 0
lhumerus -46.1 -10.4846 105.485
lradius 37.8357 -0 0
lwrist 2.28989 0 0
lhand -11.7921 10.3889 -0.00359164
lfingers 7.12502 0 0
lthumb 17.1766 42.7533 -0.00329434
rclavicle 1.67571e-14 -1.69819e-14 0
rhumerus -47.5603 -4.9048 -90.3143
rradius 44.6738 -0 0
rwrist 11.1039 0 0
rhand -26.9296 -24.5404 -0.0109638
rfingers 7.12502 0 0
rthumb 2.50048 -57.0219 -0.0101382
10
root 6.16902 16.8607 -28.1092 9.67563 -2.71502 -3.29787
lfemur -21.6563 2.43955 -21.3496
ltibia 38.09 -0 0
lfoot -41.1403 4.24008 -0.000225223
ltoes 41.6827 -0 0
rfemur -20.4893 1.03242 20.8963
rtibia 37.8731 -0 0
rfoot -32.2368 -11.9895 -0.00297614
rtoes 23.3588 -0 0
lowerback -2.38422 3.88418 -5.32029
upperback -2.83547 5.29912 3.76438
thorax -2.37375 2.82387 6.8768
lowerneck -10.5554 -2.50962 2.02729
upperneck -1.50414 -3.51951 -1.79316
head 1.24173 -1.79755 -1.03884
lclavicle 2.09203e-14 -1.44829e-14 0
lhumerus -44.4677 -10.5471 103.445
lradius 36.3618 -0 0
lwrist 2.13769 0 0
lhand -11.3135 10.0035 -0.00452803
lfingers 7.12502 0 0
lthumb 16.5217 41.2585 -0.00420124
rclavicle 2.09203e-14 -1.44829e-14 0
rhumerus -45.9282 -4.90199 -88.1307
rradius 43.1221 -0 0
rwrist 10.665 0 0
rhand -25.9314 -23.575 -0.0112218
rfingers 7.12502 0 0
rthumb 2.37776 -55.1427 -0.0105341
11
root 6.16079 16.8635 -28.106 9.24024 -2.60571 -3.1648
lfemur -20.7095 2.34679 -20.4274
ltibia 36.5357 -0 0
lfoot -39.5155 4.05279 -0.000309515
ltoes 40.0663 -0 0
rfemur -19.5957 1.01326 19.9989
rtibia 36.3282 -0 0
rfoot -30.9057 -11.4618 -0.00111932
rtoes 22.5063 -0 0
lowerback -2.26214 3.72393 -5.12484
upperback -2.71609 5.07928 3.63276
thorax -2.28909 2.70963 6.63157
lowerneck -10.096 -2.40441 1.92181
upperneck -1.42435 -3.3694 -1.74439
head 1.19159 -1.7212 -1.00004
lclavicle 2.50836e-14 -1.19839e-14 0
lhumerus -42.6798 -10.6073 101.025
lradius 34.7675 -0 0
lwrist 1.98011 0 0
lhand -10.8023 9.59113 -0.00544164
lfingers 7.12502 0 0
lthumb 15.8181 39.6252 -0.00510579
rclavicle 2.50836e-14 -1.19839e-14 0
rhumerus -44.1358 -4.88976 -85.5982
rradius 41.4217 -0 0
rwrist 10.1951 0 0
rhand -24.8506 -22.5395 -0.0113926
rfingers 7.12502 0 0
rthumb 2.25072 -53.0607 -0.0108615
12
root 6.15255 16.8662 -28.1028 8.80301 -2.49523 -3.03035
lfemur -19.7535 2.25193 -19.4956
ltibia 34.9451 -0 0
lfoot -37.846 3.86464 -0.000388715
ltoes 38.403 -0 0
rfemur -18.6934 0.992975 19.0921
rtibia 34.747 -0 0
rfoot -29.5495 -10.9317 0.000640881
rtoes 21.635 -0 0
lowerback -2.14074 3.56214 -4.92594
upperback -2.59577 4.85742 3.49841
thorax -2.20262 2.59413 6.3815
lowerneck -9.6337 -2.29833 1.81679
upperneck -1.34506 -3.21821 -1.69352
head 1.14093 -1.64429 -0.960619
lclavicle 2.92468e-14 -9.48485e-15 0
lhumerus -40.841 -10.6549 98.3106
lradius 33.1446 -0 0
lwrist 1.82555 0 0
lhand -10.2888 9.17437 -0.00630267
lfingers 7.12502 0 0
lthumb 15.1078 37.9467 -0.00597503
rclavicle 2.92468e-14 -9.48485e-15 0
rhumerus -42.2859 -4.86556 -82.8302
rradius 39.6719 -0 0
rwrist 9.72243 0 0
rhand -23.7545 -21.4929 -0.0115213
rfingers 7.12502 0 0
rthumb 2.12399 -50.8906 -0.0111486
